<svg width="24" height="25" viewBox="0 0 24 25" fill="none" xmlns="http://www.w3.org/2000/svg">
<ellipse cx="12" cy="12.5" rx="12" ry="12" transform="rotate(-180 12 12.5)" fill="#FFC32A"/>
<path d="M16.8607 11.1361C16.6944 10.9554 16.4469 10.8504 16.1758 10.8796C15.8058 10.9193 15.5068 11.2148 15.4624 11.5846C15.4461 11.7211 15.4641 11.8515 15.5085 11.9691C15.5593 12.1696 15.6092 12.2463 16.0011 12.5594C16.0046 12.5624 16.0083 12.565 16.0118 12.5679C16.346 12.827 16.7445 13.3064 16.7445 14.12C16.7445 14.9335 16.3462 15.4129 16.0118 15.672C15.6521 15.951 15.1691 16.1176 14.7207 16.1176C14.1703 16.1176 13.6719 15.8879 13.2795 15.4538L10.0662 11.6134C8.79722 10.2093 7.10773 10.1854 5.94959 10.6313C4.79146 11.0771 3.55396 12.2277 3.55396 14.1203C3.55396 16.0128 4.79146 17.1637 5.94959 17.6092C7.10773 18.0548 8.79722 18.0312 10.0662 16.6271L10.0686 16.6244C10.2895 16.3796 10.1398 15.827 9.92967 15.5728C9.71958 15.3187 9.815 15.4263 9.815 15.4263C9.54947 15.1051 9.05692 15.1051 8.79138 15.4263L8.76833 15.4543C8.37587 15.8885 7.87748 16.1182 7.32716 16.1182C6.87867 16.1182 6.39604 15.9516 6.03596 15.6726C5.70186 15.4135 5.30327 14.9341 5.30327 14.1205C5.30327 13.307 5.70157 12.8276 6.03596 12.5685C6.39575 12.2895 6.87867 12.1229 7.32716 12.1229C7.87748 12.1229 8.37587 12.3526 8.76833 12.7867L11.9816 16.6274C13.2506 18.0315 14.9401 18.0554 16.0982 17.6095C17.2564 17.1637 18.4939 16.0131 18.4939 14.1205C18.4939 12.5796 17.753 11.7783 16.861 11.1364L16.8607 11.1361Z" fill="black"/>
<path d="M19.4151 6.4249C19.4151 6.10247 19.1539 5.84131 18.8315 5.84131H16.2185C15.896 5.84131 15.6349 6.10247 15.6349 6.4249C15.6349 6.74733 15.896 7.00849 16.2185 7.00849H16.8864L12.9285 10.7052L11.5541 8.3525C11.3893 8.07033 11.0873 7.897 10.7604 7.897H8.66244C8.15472 7.897 7.74329 8.30843 7.74329 8.81616C7.74329 9.32388 8.15472 9.73531 8.66244 9.73531H10.2329L11.7873 12.3962C11.8305 12.4703 11.8827 12.536 11.9413 12.5929C11.9761 12.6538 12.0184 12.7122 12.0686 12.7656C12.2495 12.9594 12.4946 13.0574 12.7406 13.0574C12.9652 13.0574 13.1905 12.9754 13.3679 12.81L18.2482 8.25153V9.17069C18.2482 9.49312 18.5094 9.75428 18.8318 9.75428C19.1542 9.75428 19.4154 9.49312 19.4154 9.17069V6.55825C19.4154 6.53578 19.4139 6.5136 19.4113 6.49172C19.4136 6.46983 19.4154 6.44766 19.4154 6.42519L19.4151 6.4249Z" fill="black"/>
<path d="M7.42365 14.9291C7.87053 14.9291 8.2328 14.5668 8.2328 14.1199C8.2328 13.6731 7.87053 13.3108 7.42365 13.3108C6.97677 13.3108 6.6145 13.6731 6.6145 14.1199C6.6145 14.5668 6.97677 14.9291 7.42365 14.9291Z" fill="black"/>
<path d="M14.8079 14.9291C15.2548 14.9291 15.6171 14.5668 15.6171 14.1199C15.6171 13.6731 15.2548 13.3108 14.8079 13.3108C14.361 13.3108 13.9988 13.6731 13.9988 14.1199C13.9988 14.5668 14.361 14.9291 14.8079 14.9291Z" fill="black"/>
<path d="M9.43355 16.9003C9.90895 16.9003 10.2943 16.5149 10.2943 16.0395C10.2943 15.5641 9.90895 15.1787 9.43355 15.1787C8.95814 15.1787 8.57275 15.5641 8.57275 16.0395C8.57275 16.5149 8.95814 16.9003 9.43355 16.9003Z" fill="black"/>
</svg>
