<svg width="30" height="30" viewBox="0 0 30 30" fill="none" xmlns="http://www.w3.org/2000/svg">
<path fill-rule="evenodd" clip-rule="evenodd" d="M18.0213 26.6164C23.1862 25.2769 27 20.5838 27 15C27 8.37258 21.6274 3 15 3C8.37258 3 3 8.37258 3 15C3 21.426 8.05095 26.6722 14.3993 26.9852L14.2545 18.349L12.199 18.3848C11.9935 18.3848 11.8363 18.2296 11.8363 18.0268L11.8 15.7595C11.8 15.5567 11.9572 15.4015 12.1628 15.4015L14.2182 15.3657L14.1577 11.4876C14.1214 9.5067 15.7174 7.88382 17.7245 7.84803L20.9889 7.80029C21.1945 7.80029 21.3517 7.95542 21.3517 8.15828L21.4 11.0222C21.4 11.225 21.2428 11.3802 21.0373 11.3802L18.1356 11.4279C17.93 11.416 17.7728 11.583 17.7728 11.7739L17.8333 15.2941L21.0131 15.2464C21.2429 15.2464 21.4121 15.4493 21.3758 15.6641L20.9527 17.9432C20.9164 18.1103 20.7713 18.2296 20.6021 18.2416L17.8817 18.2893L18.0213 26.6164ZM15.7243 26.9785L14.6768 26.9957C14.7842 26.9986 14.8919 27 15 27C15.2432 27 15.4847 26.9928 15.7243 26.9785Z" fill="black"/>
</svg>
