<svg width="152" height="48" viewBox="0 0 152 48" fill="none" xmlns="http://www.w3.org/2000/svg">
<path d="M54.1795 34V31.032H56.8115V17.368H54.1795V14.4H64.2035C65.3795 14.4 66.4061 14.6053 67.2835 15.016C68.1795 15.408 68.8701 15.9773 69.3555 16.724C69.8595 17.452 70.1115 18.3293 70.1115 19.356V19.608C70.1115 20.504 69.9435 21.2413 69.6075 21.82C69.2715 22.3987 68.8701 22.8467 68.4035 23.164C67.9368 23.4813 67.4888 23.7053 67.0595 23.836V24.312C67.4888 24.424 67.9461 24.6387 68.4315 24.956C68.9355 25.2547 69.3555 25.7027 69.6915 26.3C70.0461 26.8787 70.2235 27.6347 70.2235 28.568V28.848C70.2235 29.912 69.9621 30.836 69.4395 31.62C68.9355 32.3853 68.2355 32.9733 67.3395 33.384C66.4621 33.7947 65.4448 34 64.2875 34H54.1795ZM60.1715 30.948H63.8955C64.7915 30.948 65.5008 30.7333 66.0235 30.304C66.5648 29.856 66.8355 29.2307 66.8355 28.428V28.176C66.8355 27.3733 66.5741 26.7573 66.0515 26.328C65.5288 25.88 64.8101 25.656 63.8955 25.656H60.1715V30.948ZM60.1715 22.604H63.8675C64.7261 22.604 65.4168 22.3893 65.9395 21.96C66.4808 21.5307 66.7515 20.9333 66.7515 20.168V19.888C66.7515 19.1227 66.4808 18.5253 65.9395 18.096C65.4168 17.6667 64.7261 17.452 63.8675 17.452H60.1715V22.604ZM72.9419 34V20.168H76.1619V34H72.9419ZM74.5379 18.404C73.9592 18.404 73.4552 18.2173 73.0259 17.844C72.6152 17.452 72.4099 16.9387 72.4099 16.304C72.4099 15.6693 72.6152 15.1653 73.0259 14.792C73.4552 14.4 73.9592 14.204 74.5379 14.204C75.1539 14.204 75.6579 14.4 76.0499 14.792C76.4605 15.1653 76.6659 15.6693 76.6659 16.304C76.6659 16.9387 76.4605 17.452 76.0499 17.844C75.6579 18.2173 75.1539 18.404 74.5379 18.404ZM79.6827 34V14.4H82.9027V25.404H83.3787L88.3627 20.168H92.5907L85.8987 26.86L92.8147 34H88.6427L83.3787 28.372H82.9027V34H79.6827ZM100.98 34.392C99.5986 34.392 98.3759 34.1027 97.3119 33.524C96.2666 32.9267 95.4453 32.096 94.8479 31.032C94.2693 29.9493 93.9799 28.68 93.9799 27.224V26.888C93.9799 25.432 94.2693 24.172 94.8479 23.108C95.4266 22.0253 96.2386 21.1947 97.2839 20.616C98.3293 20.0187 99.5426 19.72 100.924 19.72C102.287 19.72 103.472 20.028 104.48 20.644C105.488 21.2413 106.272 22.0813 106.832 23.164C107.392 24.228 107.672 25.4693 107.672 26.888V28.092H97.5639C97.6013 29.044 97.9559 29.8187 98.6279 30.416C99.2999 31.0133 100.121 31.312 101.092 31.312C102.081 31.312 102.809 31.0973 103.276 30.668C103.743 30.2387 104.097 29.7627 104.34 29.24L107.224 30.752C106.963 31.2373 106.58 31.7693 106.076 32.348C105.591 32.908 104.937 33.3933 104.116 33.804C103.295 34.196 102.249 34.392 100.98 34.392ZM97.5919 25.46H104.088C104.013 24.6573 103.687 24.0133 103.108 23.528C102.548 23.0427 101.811 22.8 100.896 22.8C99.9439 22.8 99.1879 23.0427 98.6279 23.528C98.0679 24.0133 97.7226 24.6573 97.5919 25.46ZM114.564 34.392C113.575 34.392 112.688 34.224 111.904 33.888C111.12 33.5333 110.495 33.0293 110.028 32.376C109.58 31.704 109.356 30.892 109.356 29.94C109.356 28.988 109.58 28.1947 110.028 27.56C110.495 26.9067 111.129 26.4213 111.932 26.104C112.753 25.768 113.687 25.6 114.732 25.6H118.54V24.816C118.54 24.1627 118.335 23.6307 117.924 23.22C117.513 22.7907 116.86 22.576 115.964 22.576C115.087 22.576 114.433 22.7813 114.004 23.192C113.575 23.584 113.295 24.0973 113.164 24.732L109.916 23.64C110.14 22.9307 110.495 22.2867 110.98 21.708C111.484 21.1107 112.147 20.6347 112.968 20.28C113.808 19.9067 114.825 19.72 116.02 19.72C117.849 19.72 119.296 20.1773 120.36 21.092C121.424 22.0067 121.956 23.332 121.956 25.068V30.248C121.956 30.808 122.217 31.088 122.74 31.088H123.86V34H121.508C120.817 34 120.248 33.832 119.8 33.496C119.352 33.16 119.128 32.712 119.128 32.152V32.124H118.596C118.521 32.348 118.353 32.6467 118.092 33.02C117.831 33.3747 117.42 33.692 116.86 33.972C116.3 34.252 115.535 34.392 114.564 34.392ZM115.18 31.536C116.169 31.536 116.972 31.2653 117.588 30.724C118.223 30.164 118.54 29.4267 118.54 28.512V28.232H114.984C114.331 28.232 113.817 28.372 113.444 28.652C113.071 28.932 112.884 29.324 112.884 29.828C112.884 30.332 113.08 30.7427 113.472 31.06C113.864 31.3773 114.433 31.536 115.18 31.536ZM125.88 34V20.112H129.352V21.68H129.856C130.061 21.12 130.397 20.7093 130.864 20.448C131.349 20.1867 131.909 20.056 132.544 20.056H134.224V23.192H132.488C131.592 23.192 130.854 23.4347 130.276 23.92C129.697 24.3867 129.408 25.1147 129.408 26.104V34H125.88ZM136.421 34V20.112H139.893V21.932H140.397C140.621 21.4467 141.041 20.9893 141.657 20.56C142.273 20.112 143.206 19.888 144.457 19.888C145.54 19.888 146.482 20.14 147.285 20.644C148.106 21.1293 148.741 21.8107 149.189 22.688C149.637 23.5467 149.861 24.5547 149.861 25.712V34H146.333V25.992C146.333 24.9467 146.072 24.1627 145.549 23.64C145.045 23.1173 144.317 22.856 143.365 22.856C142.282 22.856 141.442 23.22 140.845 23.948C140.248 24.6573 139.949 25.656 139.949 26.944V34H136.421Z" fill="black"/>
<path d="M33.3754 22.1202C32.9582 21.6672 32.3376 21.4037 31.6577 21.4769C30.7297 21.5764 29.9795 22.3178 29.8683 23.2451C29.8273 23.5876 29.8727 23.9147 29.9839 24.2097C30.1113 24.7125 30.2364 24.9049 31.2193 25.6902C31.2281 25.6976 31.2376 25.7041 31.2464 25.7115C32.0844 26.3614 33.0841 27.5638 33.0841 29.6043C33.0841 31.6447 32.0851 32.8472 31.2464 33.4971C30.344 34.1967 29.1328 34.6146 28.0079 34.6146C26.6276 34.6146 25.3775 34.0387 24.3932 32.9496L16.3338 23.3175C13.1509 19.7958 8.91343 19.7357 6.00864 20.854C3.10386 21.9723 0 24.8581 0 29.605C0 34.3519 3.10386 37.2384 6.00864 38.356C8.91343 39.4735 13.1509 39.4142 16.3338 35.8925L16.3397 35.8859C16.8937 35.2719 16.5183 33.8857 15.9913 33.2483C15.4644 32.6108 15.7037 32.8808 15.7037 32.8808C15.0377 32.0751 13.8023 32.0751 13.1363 32.8808L13.0785 32.9511C12.0941 34.0401 10.8441 34.6161 9.46379 34.6161C8.33891 34.6161 7.1284 34.1982 6.22528 33.4985C5.38729 32.8486 4.38755 31.6462 4.38755 29.6057C4.38755 27.5653 5.38655 26.3628 6.22528 25.7129C7.12767 25.0133 8.33891 24.5954 9.46379 24.5954C10.8441 24.5954 12.0941 25.1713 13.0785 26.2604L21.1378 35.8932C24.3207 39.415 28.5583 39.475 31.463 38.3567C34.3678 37.2384 37.4717 34.3526 37.4717 29.6057C37.4717 25.7407 35.6135 23.731 33.3761 22.1209L33.3754 22.1202Z" fill="black"/>
<path d="M39.782 10.3041C39.782 9.49535 39.127 8.84033 38.3182 8.84033H31.7644C30.9556 8.84033 30.3006 9.49535 30.3006 10.3041C30.3006 11.1128 30.9556 11.7678 31.7644 11.7678H33.4396L23.5125 21.0399L20.0654 15.1388C19.6519 14.4311 18.8944 13.9963 18.0747 13.9963H12.8126C11.5392 13.9963 10.5072 15.0283 10.5072 16.3017C10.5072 17.5752 11.5392 18.6071 12.8126 18.6071H16.7515L20.6502 25.281C20.7585 25.4669 20.8895 25.6316 21.0366 25.7743C21.1237 25.9273 21.2298 26.0736 21.3557 26.2076C21.8095 26.6935 22.4242 26.9394 23.0412 26.9394C23.6047 26.9394 24.1697 26.7338 24.6147 26.3188L36.8552 14.8856V17.191C36.8552 17.9997 37.5103 18.6547 38.319 18.6547C39.1277 18.6547 39.7827 17.9997 39.7827 17.191V10.6385C39.7827 10.5822 39.779 10.5266 39.7725 10.4717C39.7783 10.4168 39.7827 10.3612 39.7827 10.3048L39.782 10.3041Z" fill="black"/>
<path d="M9.70614 31.6344C10.827 31.6344 11.7356 30.7258 11.7356 29.6049C11.7356 28.4841 10.827 27.5754 9.70614 27.5754C8.5853 27.5754 7.67667 28.4841 7.67667 29.6049C7.67667 30.7258 8.5853 31.6344 9.70614 31.6344Z" fill="black"/>
<path d="M28.2267 31.6344C29.3476 31.6344 30.2562 30.7258 30.2562 29.6049C30.2562 28.4841 29.3476 27.5754 28.2267 27.5754C27.1059 27.5754 26.1972 28.4841 26.1972 29.6049C26.1972 30.7258 27.1059 31.6344 28.2267 31.6344Z" fill="black"/>
<path d="M14.747 36.578C15.9394 36.578 16.9061 35.6114 16.9061 34.419C16.9061 33.2266 15.9394 32.26 14.747 32.26C13.5546 32.26 12.588 33.2266 12.588 34.419C12.588 35.6114 13.5546 36.578 14.747 36.578Z" fill="black"/>
</svg>
