<svg width="30" height="30" viewBox="0 0 30 30" fill="none" xmlns="http://www.w3.org/2000/svg">
<g clip-path="url(#clip0_1462_4017)">
<path fill-rule="evenodd" clip-rule="evenodd" d="M27.1875 15C27.1875 21.731 21.731 27.1875 15 27.1875C8.26903 27.1875 2.8125 21.731 2.8125 15C2.8125 8.26903 8.26903 2.8125 15 2.8125C21.731 2.8125 27.1875 8.26903 27.1875 15ZM16.092 11.5129L7.88478 14.8944L7.88397 14.8945C6.43975 15.458 7.28515 15.9863 7.28515 15.9863C7.28515 15.9863 8.51802 16.409 9.57468 16.726C10.6313 17.043 11.195 16.6908 11.195 16.6908L16.1616 13.3445C17.9228 12.1468 17.5001 13.133 17.0774 13.5557C16.1617 14.4715 14.647 15.9157 13.3789 17.0781C12.8153 17.5712 13.0971 17.994 13.3437 18.2053C14.0606 18.8119 15.7489 19.915 16.516 20.4162C16.7289 20.5552 16.8708 20.648 16.9014 20.6709C17.0774 20.8119 18.0627 21.4458 18.6625 21.305C19.2623 21.1641 19.3328 20.3539 19.3328 20.3539L20.2134 14.8238C20.291 14.3098 20.3686 13.8065 20.441 13.3366C20.6317 12.1 20.7866 11.0953 20.8122 10.738C20.9179 9.54046 19.6498 10.0335 19.6498 10.0335C19.6498 10.0335 16.9022 11.1607 16.092 11.5129Z" fill="black"/>
</g>
<defs>
<clipPath id="clip0_1462_4017">
<rect width="24.375" height="24.375" fill="white" transform="translate(2.8125 2.8125)"/>
</clipPath>
</defs>
</svg>
