<svg width="29" height="30" viewBox="0 0 29 30" fill="none" xmlns="http://www.w3.org/2000/svg">
<path d="M14.5 2.8125C7.99402 2.8125 2.71875 8.26967 2.71875 15C2.71875 21.7303 7.99402 27.1875 14.5 27.1875C21.006 27.1875 26.2812 21.7303 26.2812 15C26.2812 8.26967 21.006 2.8125 14.5 2.8125ZM20.1618 11.9994C20.1697 12.1272 20.1697 12.2605 20.1697 12.3911C20.1697 16.3847 17.2297 20.9849 11.8571 20.9849C10.2004 20.9849 8.6646 20.4871 7.37077 19.6302C7.60744 19.6574 7.8336 19.6682 8.07554 19.6682C9.443 19.6682 10.7 19.1895 11.702 18.3788C10.4186 18.3516 9.34044 17.481 8.97228 16.284C9.42197 16.3521 9.82695 16.3521 10.2898 16.2296C9.629 16.0908 9.03506 15.7195 8.60889 15.179C8.18272 14.6384 7.95059 13.9619 7.95194 13.2644V13.2263C8.33851 13.4521 8.79346 13.5908 9.26944 13.6099C8.86931 13.334 8.54115 12.9603 8.31408 12.5218C8.08701 12.0833 7.96804 11.5936 7.96772 11.0962C7.96772 10.5331 8.10972 10.0189 8.36481 9.57275C9.09825 10.5068 10.0135 11.2707 11.051 11.8148C12.0885 12.359 13.2251 12.6712 14.3869 12.7312C13.9741 10.6772 15.4572 9.01507 17.2402 9.01507C18.0817 9.01507 18.8391 9.3796 19.3729 9.96722C20.033 9.83936 20.6641 9.58364 21.2269 9.24086C21.0086 9.94001 20.551 10.5303 19.9436 10.903C20.5326 10.8378 21.1007 10.6691 21.6266 10.4324C21.2295 11.0363 20.7325 11.5723 20.1618 11.9994Z" fill="black"/>
</svg>
